<svg xmlns="http://www.w3.org/2000/svg" xmlns:xlink="http://www.w3.org/1999/xlink" width="21.663" height="21.475" viewBox="0 0 21.663 21.475"><defs><style>.a{fill:#2d819e;}.b{clip-path:url(#a);}</style><clipPath id="a"><rect class="a" width="21.663" height="21.475"/></clipPath></defs><g transform="translate(20 -118)"><g transform="translate(-20 118)"><g class="b" transform="translate(0 0)"><path class="a" d="M75.123,129.353c2.678,0,4.85-2.541,4.85-5.676,0-4.347-2.171-5.676-4.85-5.676s-4.85,1.329-4.85,5.676c0,3.135,2.171,5.676,4.85,5.676Zm0,0" transform="translate(-64.308 -118)"/><path class="a" d="M1.523,301.694l-2.447-5.512a1.226,1.226,0,0,0-.553-.589l-3.8-1.977a.244.244,0,0,0-.26.022,6.014,6.014,0,0,1-3.651,1.242,6.014,6.014,0,0,1-3.652-1.242.245.245,0,0,0-.261-.022l-3.8,1.977a1.226,1.226,0,0,0-.553.589l-2.447,5.512a1.218,1.218,0,0,0,.092,1.163,1.219,1.219,0,0,0,1.026.556H.4a1.223,1.223,0,0,0,1.118-1.72Zm0,0" transform="translate(20.001 -281.987)"/></g></g></g></svg>