<svg xmlns="http://www.w3.org/2000/svg" width="21.995" height="21.996" viewBox="0 0 21.995 21.996"><defs><style>.a{fill:#2d819e;}</style></defs><g transform="translate(-93 -230)"><path class="a" d="M113.521,235.477a10.95,10.95,0,0,0-4-4,11.065,11.065,0,0,0-11.04,0,10.942,10.942,0,0,0-4,4,11.066,11.066,0,0,0,0,11.041,10.946,10.946,0,0,0,4,4,11.066,11.066,0,0,0,11.041,0,10.948,10.948,0,0,0,4-4,11.072,11.072,0,0,0,0-11.041Zm-2.778,9.43a7.773,7.773,0,0,1-2.836,2.836,7.838,7.838,0,0,1-7.818,0,7.766,7.766,0,0,1-2.836-2.836,7.835,7.835,0,0,1,0-7.819,7.763,7.763,0,0,1,2.836-2.835,7.832,7.832,0,0,1,7.818,0,7.771,7.771,0,0,1,2.836,2.835,7.839,7.839,0,0,1,0,7.819Zm0,0"/><path class="a" d="M131.412,255.028H130.5a.441.441,0,0,0-.458.458v5.041h-3.208a.439.439,0,0,0-.458.457v.917a.441.441,0,0,0,.458.458h4.583a.442.442,0,0,0,.329-.129.447.447,0,0,0,.13-.33v-6.415a.442.442,0,0,0-.458-.458Zm0,0" transform="translate(-26.039 -19.529)"/></g></svg>