<svg xmlns="http://www.w3.org/2000/svg" width="24.257" height="22.741" viewBox="0 0 24.257 22.741"><defs><style>.a{fill:#fff;}</style></defs><path class="a" d="M24.257,25.854c0-5.434-4.762-9.854-10.612-9.854s-10.612,4.421-10.6,9.971a4.469,4.469,0,0,1-.6,3.018,2.074,2.074,0,0,1-1.678.655A.758.758,0,0,0,0,30.4c0,2.1,1.557,3.561,4.7,4.412a3.026,3.026,0,1,0,5.914.894c0-.026-.008-.049-.008-.074.951.049,1.959.074,3.04.074a3.032,3.032,0,1,0,5.64-1.522A9.711,9.711,0,0,0,24.257,25.854Zm-7.565-3.032h.015a.758.758,0,1,1-.015,0Zm-6.064,0h.015a.758.758,0,1,1-.015,0Zm7.547,4.715a4.643,4.643,0,0,1-9.06,0,.758.758,0,1,1,1.48-.334,3.125,3.125,0,0,0,6.1,0,.759.759,0,0,1,1.481.334Z" transform="translate(0 -16)"/></svg>