<svg width="22.257" height="22.741" viewBox="0 0 161 158" fill="none" xmlns="http://www.w3.org/2000/svg">
<path d="M25.4802 157.5V141.75H102.657C114.275 141.75 124.275 137.681 132.657 129.544C141.038 121.406 145.229 111.3 145.229 99.225C145.229 87.15 141.038 77.0437 132.657 68.9062C124.275 60.7687 114.275 56.7 102.657 56.7H29.2146L57.5958 86.625L47.1396 97.65L0.833328 48.825L47.1396 0L57.5958 11.025L29.2146 40.95H102.408C118.176 40.95 131.744 46.55 143.113 57.75C154.482 68.95 160.167 82.775 160.167 99.225C160.167 115.675 154.482 129.5 143.113 140.7C131.744 151.9 118.176 157.5 102.408 157.5H25.4802Z" fill="white"/>
</svg>
