<svg xmlns="http://www.w3.org/2000/svg" xmlns:xlink="http://www.w3.org/1999/xlink" width="69.967" height="70" viewBox="0 0 69.967 70"><defs><style>.a{fill:#4c576b;}.b{fill:#edb50b;}.c{clip-path:url(#a);}</style><clipPath id="a"><rect class="a" width="69.967" height="70"/></clipPath></defs><g transform="translate(-153 -166)"><circle class="b" cx="33.5" cy="33.5" r="33.5" transform="translate(154 168)"/><g transform="translate(52 -72)"><g transform="translate(101 238)"><g class="c"><path class="a" d="M160.705,248.274a34.953,34.953,0,1,0,0,49.428,34.991,34.991,0,0,0,0-49.428ZM156.89,293.89a29.561,29.561,0,1,1,0-41.8,29.594,29.594,0,0,1,0,41.8ZM152.8,278.282a.932.932,0,0,1,.077.894,18.631,18.631,0,0,1-33.78-.052.943.943,0,0,1,.872-1.306l32.044.039a.944.944,0,0,1,.788.425Zm-29.374-12.353a4.084,4.084,0,1,1,6.656-.071,4.078,4.078,0,0,0-6.656.071Zm18.523,0a4.084,4.084,0,1,1,6.656-.071,4.078,4.078,0,0,0-6.656.071Zm0,0" transform="translate(-101.009 -238.009)"/></g></g></g></g></svg>