<svg xmlns="http://www.w3.org/2000/svg" width="37.5" height="50" viewBox="0 0 37.5 50"><defs><style>.a{fill:#4c566a;}</style></defs><path class="a" d="M100.458,18.75H97.333V14.583a14.583,14.583,0,1,0-29.167,0v1.042a1.041,1.041,0,0,0,1.042,1.042h4.167a1.041,1.041,0,0,0,1.042-1.042V14.583a8.333,8.333,0,0,1,16.667,0V18.75H65.042A1.041,1.041,0,0,0,64,19.792V45.833A4.171,4.171,0,0,0,68.167,50H97.333a4.171,4.171,0,0,0,4.167-4.167V19.792A1.041,1.041,0,0,0,100.458,18.75Zm-26.4,23.511a8.694,8.694,0,0,1,5.768-8.187,4.834,4.834,0,1,1,5.847,0,8.694,8.694,0,0,1,5.768,8.187Z" transform="translate(-64)"/></svg>