<svg xmlns="http://www.w3.org/2000/svg" width="29.094" height="21.749" viewBox="0 0 29.094 21.749"><defs><style>.a{fill:#4c576b;}</style></defs><g transform="translate(-57.207 -236.472)"><path class="a" d="M72.9,264.765H62.569v-2.705a.917.917,0,0,0-1.56-.648l-4.539,4.539a.93.93,0,0,0,0,1.3l4.539,4.539a.912.912,0,0,0,1.56-.649l.011-2.624v-.081H72.9Z" transform="translate(1 -19.252)"/><path class="a" d="M110.249,236.472a10.867,10.867,0,0,0-9.408,5.424h4.471a7.357,7.357,0,1,1,0,10.9h-4.471a10.874,10.874,0,1,0,9.408-16.324Z" transform="translate(-34.823)"/></g></svg>