<svg xmlns="http://www.w3.org/2000/svg" width="122.182" height="38.667" viewBox="0 0 122.182 38.667"><defs><style>.a{fill:#f5594f;}.b{fill:#2d819e;}</style></defs><g transform="translate(0.017)"><path class="a" d="M68.529,36.488a1.73,1.73,0,0,1,.2.969,2.791,2.791,0,0,1-.565,1.816,14.484,14.484,0,0,1-2.7,2.543,5.762,5.762,0,0,1-3.269.969,3.213,3.213,0,0,1-2.5-1.09,6.183,6.183,0,0,1-3.471,1.09,35.059,35.059,0,0,1-1.7,9.364c-.888,2.5-2.18,3.754-3.915,3.754a2.621,2.621,0,0,1-2.341-1.13,5.848,5.848,0,0,1-.767-3.148,21.6,21.6,0,0,1,1.292-6.66,45.809,45.809,0,0,1,4.036-8.355c0-2.825,0-4.8-.04-5.893a1.483,1.483,0,0,1,.686-1.332,3.026,3.026,0,0,1,1.736-.484,1.029,1.029,0,0,1,1.211,1.211,7.831,7.831,0,0,0,.04,1.09,6.143,6.143,0,0,1,1.816-1.655,4.1,4.1,0,0,1,1.937-.525,3.288,3.288,0,0,1,2.664,1.292,5.431,5.431,0,0,1,1.049,3.431,9.446,9.446,0,0,1-.484,2.987,9.268,9.268,0,0,1-1.372,2.664,3.449,3.449,0,0,0,1.009.161,2.912,2.912,0,0,0,1.816-.686,16.132,16.132,0,0,0,2.22-2.341.976.976,0,0,1,.767-.4A.727.727,0,0,1,68.529,36.488ZM52.182,49.606a72.63,72.63,0,0,0,.686-8.516,40.4,40.4,0,0,0-1.978,5.57,17.323,17.323,0,0,0-.727,4.44,4.2,4.2,0,0,0,.2,1.413c.161.323.323.484.525.484C51.375,53.036,51.819,51.906,52.182,49.606Zm6.175-10.777a6.729,6.729,0,0,0,1.413-2.26,7.471,7.471,0,0,0,.525-2.825,2.175,2.175,0,0,0-.363-1.332A1.046,1.046,0,0,0,59,31.968c-.686,0-1.534.727-2.543,2.22,0,.848-.04,2.1-.04,3.754,0,.888,0,1.574-.04,2.058A4.376,4.376,0,0,0,58.357,38.829Z" transform="translate(-28.338 -17.235)"/><path class="a" d="M105.674,19.253a1.73,1.73,0,0,1,.2.969,2.791,2.791,0,0,1-.565,1.816,13.523,13.523,0,0,1-2.745,2.543,6.061,6.061,0,0,1-3.39.969q-5.933,0-5.933-8.355c0-.848.04-1.7.081-2.583h-1.13a1.69,1.69,0,0,1-1.17-.323,1.438,1.438,0,0,1-.323-1.009c0-1.09.444-1.614,1.292-1.614h1.655A30.241,30.241,0,0,1,95.14,5.812a12.958,12.958,0,0,1,2.462-4.2A4.459,4.459,0,0,1,100.79,0a2.228,2.228,0,0,1,1.937,1.09,4.731,4.731,0,0,1,.686,2.7,10.1,10.1,0,0,1-3.794,7.83h3.269a1.069,1.069,0,0,1,.686.2,1.165,1.165,0,0,1,.2.767c0,1.332-1.09,2.018-3.269,2.018H96.956c-.04.969-.04,1.736-.04,2.26a8.835,8.835,0,0,0,.727,4.238A2.421,2.421,0,0,0,99.9,22.32a3.378,3.378,0,0,0,2.22-.767,16.865,16.865,0,0,0,2.26-2.26.976.976,0,0,1,.767-.4A.6.6,0,0,1,105.674,19.253ZM99.055,3.875A15.447,15.447,0,0,0,98.046,6.9a36.834,36.834,0,0,0-.807,4.278,9.988,9.988,0,0,0,2.583-3.31,8.04,8.04,0,0,0,.848-3.35c0-1.13-.2-1.7-.646-1.7C99.741,2.785,99.378,3.148,99.055,3.875Z" transform="translate(-54.102)"/><path class="b" d="M146.776,33.863a.831.831,0,0,1,.686.283,1.164,1.164,0,0,1,.242.767,2.357,2.357,0,0,1-.363,1.413,1.84,1.84,0,0,1-1.049.727,9.467,9.467,0,0,1-2.866.444A8,8,0,0,1,141,37.132c-.565.928-1.17,1.857-1.857,2.825a10.889,10.889,0,0,1-1.978,2.26,3.1,3.1,0,0,1-1.857.605,2,2,0,0,1-1.776-.888,6.106,6.106,0,0,1-.727-2.946l-.161-2.139a27.56,27.56,0,0,1-1.614,3.713,5.754,5.754,0,0,1-1.413,1.776,2.946,2.946,0,0,1-1.655.484,2.172,2.172,0,0,1-1.857-.928,6.094,6.094,0,0,1-.848-2.946c-.242-2.7-.363-5.086-.363-7.1V30.836a1.583,1.583,0,0,1,.525-1.332,2.463,2.463,0,0,1,1.493-.363,1.8,1.8,0,0,1,1.13.323,1.52,1.52,0,0,1,.363,1.13c0,2.22.121,5.126.4,8.678a93.142,93.142,0,0,0,3.633-8.678,2.453,2.453,0,0,1,.767-1.17,1.837,1.837,0,0,1,1.09-.323,1.524,1.524,0,0,1,1.09.323,1.641,1.641,0,0,1,.323,1.13c0,2.22.121,5.126.4,8.678,1.171-1.736,2.018-3.108,2.624-4.117A4.384,4.384,0,0,1,138.3,33.1a4.83,4.83,0,0,1,.444-1.937,3.68,3.68,0,0,1,1.211-1.493,2.606,2.606,0,0,1,1.7-.565,1.748,1.748,0,0,1,1.372.605,2.482,2.482,0,0,1,.525,1.736,8.287,8.287,0,0,1-.686,2.987,23.941,23.941,0,0,0,2.946-.444l.767-.161C146.574,33.863,146.655,33.863,146.776,33.863Z" transform="translate(-74.498 -17.355)"/><path class="b" d="M175.19,41.631A5.217,5.217,0,0,1,174.1,38.2a9.7,9.7,0,0,1,3.955-7.749,6.465,6.465,0,0,1,3.794-1.251q.666,0,.848.242a1.67,1.67,0,0,1,.363.888,6.681,6.681,0,0,1,1.292-.121c.969,0,1.413.323,1.413,1.009a24.228,24.228,0,0,1-.444,2.906,29.223,29.223,0,0,0-.686,4.642,1.154,1.154,0,0,0,.2.686.733.733,0,0,0,.565.242,2.2,2.2,0,0,0,1.332-.727c.525-.484,1.211-1.251,2.139-2.3a.976.976,0,0,1,.767-.4.712.712,0,0,1,.605.363,1.73,1.73,0,0,1,.2.969,2.791,2.791,0,0,1-.565,1.816,16.479,16.479,0,0,1-2.543,2.5,4.2,4.2,0,0,1-2.583,1.009,2.757,2.757,0,0,1-1.776-.646,4.349,4.349,0,0,1-1.211-1.776,4.4,4.4,0,0,1-3.794,2.422A3.581,3.581,0,0,1,175.19,41.631Zm5.166-2.381a4.428,4.428,0,0,0,.848-2.018l1.09-5.328a3.394,3.394,0,0,0-2.26.928,6.3,6.3,0,0,0-1.655,2.341,7.848,7.848,0,0,0-.605,3.068,2.02,2.02,0,0,0,.363,1.332,1.253,1.253,0,0,0,1.009.444A1.87,1.87,0,0,0,180.356,39.25Z" transform="translate(-103.84 -17.414)"/><path class="b" d="M217.833,29.342a.677.677,0,0,1,.242.565,45.566,45.566,0,0,1-.767,4.965c-.444,2.745-.727,4.359-.767,4.843A48.721,48.721,0,0,1,213.6,51.541c-1.251,2.906-2.946,4.359-5.045,4.359a3.419,3.419,0,0,1-2.422-.928,3.1,3.1,0,0,1-.928-2.381,6.935,6.935,0,0,1,.605-2.785,12.54,12.54,0,0,1,2.341-3.269,43.4,43.4,0,0,1,4.8-4.238l.081-.686c.121-.727.283-1.736.484-3.068a7.605,7.605,0,0,1-1.614,3.189,3.078,3.078,0,0,1-2.22,1.09,2.5,2.5,0,0,1-2.139-1.211,5.152,5.152,0,0,1-.848-3.027,24.487,24.487,0,0,1,.283-4,25.427,25.427,0,0,1,.969-3.834,2.694,2.694,0,0,1,.807-1.251,2.957,2.957,0,0,1,1.655-.363,1.5,1.5,0,0,1,.888.2.708.708,0,0,1,.242.605,14.605,14.605,0,0,1-.323,1.574q-.3,1.09-.484,1.937c-.161.807-.283,1.574-.4,2.3a11.007,11.007,0,0,0-.161,1.776q0,1.09.605,1.09c.283,0,.646-.283,1.09-.888a14.026,14.026,0,0,0,1.413-2.664,39.114,39.114,0,0,0,1.453-4.359,2.346,2.346,0,0,1,.727-1.251A2.409,2.409,0,0,1,216.9,29.1,2.988,2.988,0,0,1,217.833,29.342ZM210.487,51.46a24.468,24.468,0,0,0,1.816-5.61,16.245,16.245,0,0,0-3.229,3.431,5.122,5.122,0,0,0-1.009,2.7,1.59,1.59,0,0,0,.2.807.664.664,0,0,0,.605.323C209.357,53.115,209.882,52.55,210.487,51.46Z" transform="translate(-122.388 -17.355)"/><path class="b" d="M241.5,42.465a2.09,2.09,0,0,1-.807-1.574,1.808,1.808,0,0,1,.565-1.292,2.241,2.241,0,0,1,1.614-.565,8.022,8.022,0,0,1,.888.081c.323.04.605.081.767.121a3.441,3.441,0,0,0-.323-1.413,6.053,6.053,0,0,0-.767-1.292c-.323-.4-.605-.767-.888-1.09a24.023,24.023,0,0,1-1.776,2.866,24.374,24.374,0,0,1-1.937,2.139,1.538,1.538,0,0,1-1.09.525,1.033,1.033,0,0,1-.767-.323,1.2,1.2,0,0,1-.283-.848,1.664,1.664,0,0,1,.4-1.09l.363-.484q1.574-2,2.422-3.269a15.38,15.38,0,0,0,1.049-2.018c.363-.767.848-1.816,1.413-3.148a2.247,2.247,0,0,1,2.3-1.292,2.554,2.554,0,0,1,1.13.161.487.487,0,0,1,.323.484,2.349,2.349,0,0,1-.121.565c-.081.242-.2.484-.323.767a3.925,3.925,0,0,0-.525,1.776,2.1,2.1,0,0,0,.323.969,11.954,11.954,0,0,0,.928,1.292,21.426,21.426,0,0,1,1.413,2.058,3.75,3.75,0,0,1,.484,1.857,5.1,5.1,0,0,1-.565,2.3,4.456,4.456,0,0,1-1.574,1.776,4.2,4.2,0,0,1-2.341.686A3.717,3.717,0,0,1,241.5,42.465Z" transform="translate(-141.174 -16.997)"/><path class="b" d="M263.577,62.439c-1.614-2.906-5.045-.484-7.346.242A50.583,50.583,0,0,1,237.1,65.345c.727,1.816,3.754,1.736,5.772,1.857a62.148,62.148,0,0,0,7.749-.242c5.166-.525,11.221-1.736,12.956-4.521" transform="translate(-141.412 -36.406)"/><path class="a" d="M27.517,15.388a.582.582,0,0,0-.525-.323.9.9,0,0,0-.686.363,15.032,15.032,0,0,1-1.978,1.978,3.032,3.032,0,0,1-1.937.646h-.283A11.626,11.626,0,0,0,11.735,1.1,11.748,11.748,0,0,0-.01,12.8S-.7,25.236,11.654,33.47c0,0-1.453-7.063,4.561-9.929a11.366,11.366,0,0,0,4.036-2.866,6.128,6.128,0,0,0,1.534.2,5.019,5.019,0,0,0,2.987-.888,11.3,11.3,0,0,0,2.422-2.22,2.3,2.3,0,0,0,.484-1.574A1.6,1.6,0,0,0,27.517,15.388Zm-15.58,5.247h-.242a7.841,7.841,0,0,1-7.305-5A8.168,8.168,0,0,1,3.865,12.8a7.849,7.849,0,0,1,13.4-5.53,7.85,7.85,0,0,1,.121,10.9A7.733,7.733,0,0,1,11.937,20.635Z" transform="translate(0 -0.656)"/></g></svg>