<?xml version="1.0" encoding="UTF-8"?>
<!DOCTYPE svg PUBLIC "-//W3C//DTD SVG 1.1//EN" "http://www.w3.org/Graphics/SVG/1.1/DTD/svg11.dtd">
<svg xmlns="http://www.w3.org/2000/svg" version="1.1" width="1800px" height="585px" style="shape-rendering:geometricPrecision; text-rendering:geometricPrecision; image-rendering:optimizeQuality; fill-rule:evenodd; clip-rule:evenodd" xmlns:xlink="http://www.w3.org/1999/xlink">
<g><path style="opacity:1" fill="#f6655c" d="M 44.5,167.5 C 48.1002,165.57 51.1002,162.903 53.5,159.5C 76.4143,137.885 103.748,125.719 135.5,123C 192.111,120.223 236.277,142.056 268,188.5C 295.117,235.766 296.45,283.766 272,332.5C 265.035,344.803 256.535,355.97 246.5,366C 223.333,385.833 200.167,405.667 177,425.5C 165.431,438.418 156.265,452.918 149.5,469C 148.004,469.507 146.837,469.007 146,467.5C 137.514,445.011 124.014,426.178 105.5,411C 90.5,399.333 75.5,387.667 60.5,376C 13.8652,335.424 -2.30146,284.924 12,224.5C 18.2388,202.667 29.0721,183.667 44.5,167.5 Z"/></g>
<g><path style="opacity:1" fill="#fffdfd" d="M 132.5,160.5 C 185.6,156.857 223.433,178.857 246,226.5C 260.725,270.218 252.225,308.718 220.5,342C 181.657,374.271 139.657,378.938 94.5,356C 51.2247,326.869 35.3914,286.702 47,235.5C 61.268,194.138 89.768,169.138 132.5,160.5 Z"/></g>
<g><path style="opacity:1" fill="#fd968d" d="M 53.5,159.5 C 51.1002,162.903 48.1002,165.57 44.5,167.5C 46.8998,164.097 49.8998,161.43 53.5,159.5 Z"/></g>
<g><path style="opacity:1" fill="#f6635b" d="M 136.5,196.5 C 179.609,194.124 206.442,213.791 217,255.5C 219.072,288.203 205.906,312.369 177.5,328C 142.047,341.682 112.88,333.515 90,303.5C 73.1722,274.593 74.8388,246.926 95,220.5C 106.462,208.192 120.295,200.192 136.5,196.5 Z"/></g>
<g><path style="opacity:1" fill="#3182a0" d="M 414.5,223.5 C 446.9,219.795 474.067,229.795 496,253.5C 508.762,270.293 514.596,289.293 513.5,310.5C 519.167,310.5 524.833,310.5 530.5,310.5C 530.167,282.492 530.5,254.492 531.5,226.5C 557.124,225.343 582.791,225.176 608.5,226C 651.25,231.686 669.75,255.853 664,298.5C 656.944,322.215 641.11,336.048 616.5,340C 599.538,341.393 582.538,341.893 565.5,341.5C 565.667,355.837 565.5,370.171 565,384.5C 553.667,385.833 542.333,385.833 531,384.5C 530.5,370.171 530.333,355.837 530.5,341.5C 522.14,341.169 513.807,341.502 505.5,342.5C 488.491,372.684 462.491,388.018 427.5,388.5C 391.096,387.877 364.596,371.544 348,339.5C 336.056,308.18 340.056,279.18 360,252.5C 374.643,236.097 392.809,226.43 414.5,223.5 Z M 419.5,255.5 C 450.124,253.375 469.291,267.041 477,296.5C 478.631,337.869 458.798,357.369 417.5,355C 395.249,350.415 382.083,336.915 378,314.5C 375.142,282.83 388.975,263.163 419.5,255.5 Z M 565.5,256.5 C 577.505,256.333 589.505,256.5 601.5,257C 625.486,260.134 633.986,273.3 627,296.5C 621.282,305.279 613.115,309.779 602.5,310C 590.171,310.5 577.838,310.667 565.5,310.5C 565.5,292.5 565.5,274.5 565.5,256.5 Z"/></g>
<g><path style="opacity:1" fill="#3382a1" d="M 1106.5,223.5 C 1140.3,219.924 1168.14,230.924 1190,256.5C 1206.6,281.443 1209.93,308.11 1200,336.5C 1184.04,370.254 1157.2,387.588 1119.5,388.5C 1081.92,387.983 1055.08,370.983 1039,337.5C 1026.38,300.479 1034.21,268.646 1062.5,242C 1075.72,232.211 1090.38,226.045 1106.5,223.5 Z M 1111.5,255.5 C 1135.64,253.15 1153.47,262.483 1165,283.5C 1174.66,309.365 1168.83,330.865 1147.5,348C 1129.35,357.624 1111.02,357.957 1092.5,349C 1071.34,333.514 1064.5,313.014 1072,287.5C 1079.38,269.614 1092.55,258.948 1111.5,255.5 Z"/></g>
<g><path style="opacity:1" fill="#3382a1" d="M 1718.5,223.5 C 1742.3,221.159 1764.63,225.659 1785.5,237C 1786.29,238.085 1786.96,239.252 1787.5,240.5C 1784.22,248.89 1780.55,257.057 1776.5,265C 1774.83,265.667 1773.17,265.667 1771.5,265C 1751.65,253.587 1730.98,251.587 1709.5,259C 1700.33,266.878 1700.33,274.545 1709.5,282C 1728.05,287.972 1746.72,293.639 1765.5,299C 1789.95,309.986 1798.45,328.486 1791,354.5C 1781.63,373.794 1766.13,384.628 1744.5,387C 1716.82,390.993 1691.15,385.66 1667.5,371C 1665.77,369.611 1664.44,367.944 1663.5,366C 1666.86,358.108 1670.36,350.274 1674,342.5C 1674.8,341.196 1675.97,340.529 1677.5,340.5C 1692.61,351.037 1709.44,356.704 1728,357.5C 1737.17,357.715 1745.67,355.549 1753.5,351C 1760.44,343.93 1760.11,337.263 1752.5,331C 1749.04,328.953 1745.37,327.287 1741.5,326C 1725.99,322.289 1710.65,317.955 1695.5,313C 1669.41,300.761 1661.24,280.928 1671,253.5C 1675.83,243.333 1683.33,235.833 1693.5,231C 1701.63,227.391 1709.96,224.891 1718.5,223.5 Z"/></g>
<g><path style="opacity:1" fill="#3382a1" d="M 664.5,225.5 C 709.168,225.333 753.835,225.5 798.5,226C 799.126,226.75 799.626,227.584 800,228.5C 800.667,236.833 800.667,245.167 800,253.5C 799.626,254.416 799.126,255.25 798.5,256C 782.17,256.5 765.837,256.667 749.5,256.5C 749.667,298.835 749.5,341.168 749,383.5C 743.41,384.809 737.577,385.475 731.5,385.5C 725.588,385.49 719.755,385.156 714,384.5C 713.5,341.835 713.333,299.168 713.5,256.5C 697.163,256.667 680.83,256.5 664.5,256C 664,255.5 663.5,255 663,254.5C 662.333,245.5 662.333,236.5 663,227.5C 663.717,226.956 664.217,226.289 664.5,225.5 Z"/></g>
<g><path style="opacity:1" fill="#2d809f" d="M 815.5,225.5 C 826.748,225.179 837.915,225.513 849,226.5C 849.831,279.404 849.664,332.237 848.5,385C 837.257,385.82 826.09,385.653 815,384.5C 814.172,331.429 814.338,278.429 815.5,225.5 Z"/></g>
<g><path style="opacity:1" fill="#3081a0" d="M 885.5,225.5 C 911.169,225.333 936.835,225.5 962.5,226C 1007.14,232.637 1025.3,258.137 1017,302.5C 1012.1,316.732 1002.93,327.232 989.5,334C 1000.33,349.5 1011.17,365 1022,380.5C 1022.59,381.899 1022.43,383.232 1021.5,384.5C 1009.51,385.666 997.514,385.833 985.5,385C 975.5,370.667 965.5,356.333 955.5,342C 943.505,341.5 931.505,341.333 919.5,341.5C 919.667,355.837 919.5,370.171 919,384.5C 907.667,385.833 896.333,385.833 885,384.5C 884.172,331.429 884.338,278.429 885.5,225.5 Z M 919.5,256.5 C 931.505,256.333 943.505,256.5 955.5,257C 979.486,260.134 987.986,273.3 981,296.5C 975.789,304.694 968.289,309.194 958.5,310C 945.504,310.5 932.504,310.667 919.5,310.5C 919.5,292.5 919.5,274.5 919.5,256.5 Z"/></g>
<g><path style="opacity:1" fill="#3181a0" d="M 1228.5,225.5 C 1239.75,225.179 1250.91,225.513 1262,226.5C 1262.06,260.524 1262.73,294.524 1264,328.5C 1266.15,343.001 1274.31,351.834 1288.5,355C 1315.29,359.381 1330.13,348.214 1333,321.5C 1333.17,289.595 1333.67,257.762 1334.5,226C 1394.5,225.333 1454.5,225.333 1514.5,226C 1515.83,236 1515.83,246 1514.5,256C 1498.17,256.5 1481.84,256.667 1465.5,256.5C 1465.67,298.835 1465.5,341.168 1465,383.5C 1464.5,384 1464,384.5 1463.5,385C 1452.26,385.82 1441.09,385.653 1430,384.5C 1429.5,341.835 1429.33,299.168 1429.5,256.5C 1409.17,256.5 1388.83,256.5 1368.5,256.5C 1368.67,280.169 1368.5,303.836 1368,327.5C 1365.38,356.773 1350.21,375.939 1322.5,385C 1302.86,389.972 1283.52,388.972 1264.5,382C 1243.14,371.464 1230.97,354.297 1228,330.5C 1227.17,295.429 1227.34,260.429 1228.5,225.5 Z"/></g>
<g><path style="opacity:1" fill="#3081a0" d="M 1531.5,225.5 C 1570.17,225.333 1608.83,225.5 1647.5,226C 1648,226.5 1648.5,227 1649,227.5C 1649.67,236.5 1649.67,245.5 1649,254.5C 1648.5,255 1648,255.5 1647.5,256C 1620.17,256.5 1592.84,256.667 1565.5,256.5C 1565.5,267.5 1565.5,278.5 1565.5,289.5C 1589.84,289.333 1614.17,289.5 1638.5,290C 1639.83,299.667 1639.83,309.333 1638.5,319C 1614.17,319.5 1589.84,319.667 1565.5,319.5C 1565.5,331.167 1565.5,342.833 1565.5,354.5C 1593.84,354.333 1622.17,354.5 1650.5,355C 1651,355.5 1651.5,356 1652,356.5C 1652.81,365.881 1652.64,375.215 1651.5,384.5C 1611.27,385.829 1571.1,385.829 1531,384.5C 1530.17,331.429 1530.34,278.429 1531.5,225.5 Z"/></g>
<g><path style="opacity:1" fill="#bad3e2" d="M 273.5,438.5 C 287.12,439.753 291.62,446.753 287,459.5C 251.083,485.286 211.249,494.12 167.5,486C 161.332,484.944 155.332,483.277 149.5,481C 146.823,478.486 147.323,476.653 151,475.5C 182.801,480.783 212.968,475.95 241.5,461C 252.443,453.713 263.109,446.213 273.5,438.5 Z"/></g>
</svg>
