<svg xmlns="http://www.w3.org/2000/svg" xmlns:xlink="http://www.w3.org/1999/xlink" xml:space="preserve" version="1.1" style="shape-rendering:geometricPrecision;text-rendering:geometricPrecision;image-rendering:optimizeQuality;" viewBox="0 0 846.66 1058.325" x="0px" y="0px" fill-rule="evenodd" clip-rule="evenodd"><defs><style type="text/css">
   
    .fil0 {fill:black;fill-rule:nonzero}
   
  </style></defs><g><path class="fil0" d="M469.29 86.14l70.56 0 26.34 0c8.58,0 16.41,3.52 22.1,9.2l0.09 0.1c5.67,5.69 9.18,13.52 9.18,22.06l0 50.83 7.79 0c9.35,0 16.93,7.58 16.93,16.93l0 27.72 11.56 0c9.35,0 16.93,7.58 16.93,16.93l0 52.44 8.61 2.18 0 -26.31c0,-9.35 7.58,-16.93 16.93,-16.93 9.35,0 16.93,7.58 16.93,16.93l0 34.87 29.63 7.49c7.68,1.92 12.81,8.82 12.81,16.4l0.02 139.73c10.8,7.07 20.82,15.22 29.91,24.31 33.72,33.72 54.58,80.32 54.58,131.77 0,51.46 -20.86,98.05 -54.58,131.77 -33.72,33.72 -80.31,54.58 -131.77,54.58 -181.57,-2.21 -364.19,-0.71 -545.88,-1.04 -8.67,-0.02 -16.55,-3.51 -22.17,-9.13 -5.67,-5.67 -9.2,-13.52 -9.2,-22.16l0 -299.23 -27.85 -48.23c-4.67,-8.07 -1.92,-18.42 6.15,-23.09l21.7 -12.53 0 -266.23c0,-8.55 3.52,-16.4 9.2,-22.09l0.1 -0.09c5.69,-5.67 13.51,-9.18 22.07,-9.18l26.35 0 70.54 0c2.27,-9.07 6.99,-17.22 13.41,-23.64 9.26,-9.25 21.97,-14.97 35.89,-14.97l185.85 0c13.94,0 26.63,5.72 35.82,14.9 6.47,6.47 11.2,14.63 13.47,23.71zm-269 367.57c-9.35,0 -16.93,-7.58 -16.93,-16.93 0,-9.35 7.58,-16.93 16.93,-16.93l205.32 0c9.35,0 16.93,7.58 16.93,16.93 0,9.35 -7.58,16.93 -16.93,16.93l-205.32 0zm0 -59.52c-9.35,0 -16.93,-7.58 -16.93,-16.93 0,-9.35 7.58,-16.93 16.93,-16.93l205.32 0c9.35,0 16.93,7.58 16.93,16.93 0,9.35 -7.58,16.93 -16.93,16.93l-205.32 0zm0 -59.52c-9.35,0 -16.93,-7.58 -16.93,-16.93 0,-9.35 7.58,-16.93 16.93,-16.93l205.32 0c9.35,0 16.93,7.58 16.93,16.93 0,9.35 -7.58,16.93 -16.93,16.93l-205.32 0zm0 -59.52c-9.35,0 -16.93,-7.58 -16.93,-16.93 0,-9.35 7.58,-16.93 16.93,-16.93l205.32 0c9.35,0 16.93,7.58 16.93,16.93 0,9.35 -7.58,16.93 -16.93,16.93l-205.32 0zm450.48 42.08l0 109.97c17.87,1.61 35.02,5.74 51.07,12.04l0 -109.1c-17.02,-4.3 -34.05,-8.61 -51.07,-12.91zm-87.07 -148.9l0 -48.33 -6.92 0 0 48.33 6.92 0zm-40.78 0l0 -48.33 -52.92 0c-1.87,10.39 -6.93,19.71 -14.11,26.9 -9.26,9.25 -21.95,14.97 -35.89,14.97l-185.85 0c-13.92,0 -26.63,-5.72 -35.82,-14.9 -7.23,-7.24 -12.31,-16.58 -14.18,-26.97l-52.91 0 0 274.76 113.61 196.86c1.52,2.65 2.24,5.54 2.24,8.4l-0.13 49.99 145.53 0c9.35,0 16.93,7.58 16.93,16.93 0,9.35 -7.58,16.93 -16.93,16.93l-162.44 0c-3.61,0 -6.96,-1.13 -9.71,-3.06l-56.75 -32.49c-2.91,-1.67 -5.14,-4.07 -6.59,-6.85l-25.76 -44.61 0 126.97 352.93 0c-23.04,-31.01 -36.68,-69.43 -36.68,-111.04l0 -382.88c0,-9.35 7.58,-16.93 16.93,-16.93l11.55 0 0 -27.72c0,-9.35 7.58,-16.93 16.93,-16.93l30.02 0zm-13.09 44.65l78.59 0 0 -10.79c-26.2,0 -52.39,0 -78.59,0l0 10.79zm-6.3 152.86c0,-9.35 7.58,-16.93 16.93,-16.93 9.35,0 16.93,7.58 16.93,16.93l0 11.74 40.4 0c9.35,0 16.93,7.58 16.93,16.93 0,9.35 -7.58,16.93 -16.93,16.93l-57.33 0c-9.35,0 -16.93,-7.58 -16.93,-16.93l0 -28.67zm0 -77.53c0,-9.35 7.58,-16.93 16.93,-16.93 9.35,0 16.93,7.58 16.93,16.93l0 11.74 40.4 0c9.35,0 16.93,7.58 16.93,16.93 0,9.35 -7.58,16.93 -16.93,16.93l-57.33 0c-9.35,0 -16.93,-7.58 -16.93,-16.93l0 -28.67zm-22.18 217.34c6.19,-8.8 13.13,-17.04 20.72,-24.63 29.98,-29.98 70.14,-49.79 114.84,-53.82l0 -180.36 -135.56 0 0 258.81zm190.44 78.63c-9.35,0 -16.93,-7.58 -16.93,-16.93 0,-9.35 7.58,-16.93 16.93,-16.93l46.98 0c9.37,0.23 16.7,7.11 16.93,16.93l0 46.98c0,9.35 -7.58,16.93 -16.93,16.93 -9.35,0 -16.93,-7.58 -16.93,-16.93l0 -6.11 -52.53 52.53c-5.81,5.78 -15.14,6.64 -21.96,1.65l-33.44 -24.59 -33.16 32.47c-6.64,6.53 -17.35,6.44 -23.88,-0.2 -6.53,-6.64 -6.44,-17.35 0.2,-23.88l43.45 -42.54c5.98,-5.88 15.27,-6.39 21.83,-1.58l33.28 24.47 42.27 -42.27 -6.11 0zm-576.32 -183.98c-9.68,5.59 -19.35,11.17 -29.03,16.76 39.31,68.05 78.59,136.11 117.89,204.16l28.94 16.6 0.09 -33.3c-39.3,-68.07 -78.57,-136.17 -117.89,-204.22zm1.91 -39.42l0 -240.88 -6.93 0 0 244.18 2.7 -1.56c1.36,-0.79 2.78,-1.36 4.23,-1.74zm0 177.34l-6.93 -12 0 238.16 436.11 0.8c-3.39,-2.39 -6.68,-4.89 -9.9,-7.49l-402.35 0c-9.35,0 -16.93,-7.58 -16.93,-16.93l0 -202.54zm644.29 -33.26c-28.56,-28.56 -67.1,-44.66 -107.83,-44.66 -42.1,0 -80.24,17.07 -107.83,44.66 -27.59,27.59 -44.66,65.73 -44.66,107.83 0,42.11 17.07,80.24 44.66,107.83 27.59,27.59 65.73,44.66 107.83,44.66 42.11,0 80.24,-17.07 107.83,-44.66 27.59,-27.59 44.66,-65.72 44.66,-107.83 0,-42.1 -17.07,-80.24 -44.66,-107.83zm-321.67 -423.57l-185.85 0c-4.67,0 -8.92,1.91 -11.98,4.95 -3.04,3.06 -4.95,7.31 -4.95,11.98l0 12.76c0,4.67 1.91,8.92 4.95,11.98 3.06,3.04 7.31,4.95 11.98,4.95l185.85 0c4.67,0 8.92,-1.91 11.98,-4.95 3.04,-3.06 4.95,-7.31 4.95,-11.98l0 -12.76c0,-4.67 -1.91,-8.92 -4.95,-11.98 -3.06,-3.04 -7.31,-4.95 -11.98,-4.95z"/></g><text x="0" y="861.66" fill="#000000" font-size="5px" font-weight="bold" font-family="'Helvetica Neue', Helvetica, Arial-Unicode, Arial, Sans-serif">Created by syahruni</text><text x="0" y="866.66" fill="#000000" font-size="5px" font-weight="bold" font-family="'Helvetica Neue', Helvetica, Arial-Unicode, Arial, Sans-serif">from the Noun Project</text></svg>