<svg xmlns="http://www.w3.org/2000/svg" width="19.816" height="19.817" viewBox="0 0 19.816 19.817"><defs><style>.a{fill:#2d819e;}</style></defs><path class="a" d="M-32.335,137.819a1.536,1.536,0,0,0-2.322,0c-.543.538-1.086,1.076-1.619,1.624a.32.32,0,0,1-.447.082c-.351-.192-.725-.347-1.063-.556a16.831,16.831,0,0,1-4.06-3.695,9.619,9.619,0,0,1-1.455-2.331.334.334,0,0,1,.082-.429c.543-.525,1.072-1.063,1.606-1.6a1.542,1.542,0,0,0,0-2.377c-.424-.429-.849-.848-1.273-1.277s-.871-.881-1.314-1.314a1.546,1.546,0,0,0-2.322,0c-.547.538-1.072,1.09-1.628,1.619a2.644,2.644,0,0,0-.83,1.784A7.555,7.555,0,0,0-48.4,132.6a19.759,19.759,0,0,0,3.508,5.843,21.707,21.707,0,0,0,7.189,5.625,10.4,10.4,0,0,0,3.982,1.159,2.919,2.919,0,0,0,2.5-.953c.465-.52.99-.994,1.483-1.492a1.552,1.552,0,0,0,.009-2.363q-1.3-1.307-2.609-2.6Zm0,0" transform="translate(49.001 -125.422)"/></svg>