<svg xmlns="http://www.w3.org/2000/svg" width="21.887" height="21.886" viewBox="0 0 21.887 21.886"><defs><style>.a{fill:#4c576b;}</style></defs><g transform="translate(-93 -230)"><path class="a" d="M115.532,231.183a.9.9,0,0,0-1.283,0L112.4,233.02a11.037,11.037,0,0,0-3.491-2.23A10.752,10.752,0,0,0,104.86,230a10.525,10.525,0,0,0-6.841,2.372,11.117,11.117,0,0,0-3.847,6.192v.1a.462.462,0,0,0,.456.455h2.836a.428.428,0,0,0,.427-.327,17.178,17.178,0,0,1,.755-1.667,7.271,7.271,0,0,1,6.213-3.478,7.082,7.082,0,0,1,4.974,1.952l-1.967,1.967a.912.912,0,0,0,.641,1.553h6.384a.925.925,0,0,0,.912-.911v-6.384a.872.872,0,0,0-.271-.641Zm0,0" transform="translate(-0.916)"/><path class="a" d="M114.075,288.4h-2.736a.426.426,0,0,0-.427.328,17.079,17.079,0,0,1-.756,1.667,7.262,7.262,0,0,1-8.877,2.964,7.351,7.351,0,0,1-2.294-1.454l1.952-1.951a.912.912,0,0,0-.641-1.554H93.912a.925.925,0,0,0-.912.912v6.384a.907.907,0,0,0,1.553.641l1.838-1.839a10.885,10.885,0,0,0,3.47,2.237,10.673,10.673,0,0,0,4.026.783,10.442,10.442,0,0,0,6.811-2.372,11.079,11.079,0,0,0,3.819-6.191.251.251,0,0,0,.014-.1.464.464,0,0,0-.456-.456Zm0,0" transform="translate(0 -45.631)"/></g></svg>