<svg xmlns="http://www.w3.org/2000/svg" xmlns:xlink="http://www.w3.org/1999/xlink" width="70.96" height="70.993" viewBox="0 0 70.96 70.993"><defs><style>.a{fill:#4c576b;}.b{fill:#edb50b;}.c{clip-path:url(#a);}</style><clipPath id="a"><rect class="a" width="70.96" height="70.993"/></clipPath></defs><g transform="translate(-152 -162.003)"><circle class="b" cx="33.5" cy="33.5" r="33.5" transform="translate(154 164)"/><g transform="translate(51 -75.997)"><g transform="translate(101 238)"><g class="c"><path class="a" d="M111.419,248.416a35.448,35.448,0,1,0,50.132,0,35.489,35.489,0,0,0-50.132,0Zm46.263,46.266a29.98,29.98,0,1,1,0-42.4,30.013,30.013,0,0,1,0,42.4Zm-5.171-7.187a2,2,0,0,1-3.68,1.592,12.941,12.941,0,0,0-23.347,0,2,2,0,0,1-3.7-1.536,16.945,16.945,0,0,1,30.73-.053Zm-29.282-22.678-1.729.558a2.1,2.1,0,0,1-1.289-4l8.506-2.741a2.1,2.1,0,0,1,1.6,3.866,4.14,4.14,0,1,1-7.087,2.32Zm31.52-.924a2.1,2.1,0,0,1-2.646,1.354l-1.726-.555a4.137,4.137,0,1,1-7.089-2.323,2.1,2.1,0,0,1,1.6-3.866l8.506,2.744a2.1,2.1,0,0,1,1.354,2.646Zm0,0" transform="translate(-101.009 -238.008)"/></g></g></g></g></svg>