<svg xmlns="http://www.w3.org/2000/svg" width="21.989" height="21.988" viewBox="0 0 21.989 21.988"><defs><style>.a{fill:#2d819e;}</style></defs><path class="a" d="M21.892,11.8a1.958,1.958,0,0,0-2.468-1.257l-1.973.642c-.437-1.347-.9-2.779-1.34-4.123l1.973-.642a1.959,1.959,0,0,0-1.211-3.726L14.9,3.334l-.642-1.973a1.958,1.958,0,1,0-3.724,1.211l.642,1.973L7.053,5.885c-.389-1.2-.64-1.973-.64-1.973A1.959,1.959,0,0,0,2.687,5.121L3.328,7.1l-2.037.662A1.959,1.959,0,0,0,2.5,11.482l2.037-.662,1.34,4.123-2.037.662A1.959,1.959,0,0,0,5.05,19.329l2.038-.662L7.751,20.7a1.959,1.959,0,0,0,3.724-1.209l-.661-2.037,4.123-1.34.662,2.037a1.959,1.959,0,0,0,3.724-1.209c0-.008-.262-.808-.662-2.037l1.973-.642A1.959,1.959,0,0,0,21.892,11.8ZM9.6,13.733c-.438-1.347-.9-2.779-1.34-4.123l4.123-1.34,1.34,4.123Z" transform="translate(0 -0.007)"/></svg>