<svg xmlns="http://www.w3.org/2000/svg" width="18" height="16.741" viewBox="0 0 20 16.741"><defs><style>.a{fill:#fff;}</style></defs><g transform="translate(-85 -233)"><path class="a" d="M86.92,238.844q.379.268,2.287,1.59t2.924,2.037q.111.078.474.34t.6.424c.16.108.353.229.58.363a3.365,3.365,0,0,0,.641.3,1.778,1.778,0,0,0,.559.1h.022a1.778,1.778,0,0,0,.559-.1,3.419,3.419,0,0,0,.641-.3c.227-.134.42-.255.58-.363s.361-.249.6-.424.4-.288.475-.34q1.026-.715,5.223-3.627a5.3,5.3,0,0,0,1.361-1.373,2.949,2.949,0,0,0,.547-1.685A1.8,1.8,0,0,0,103.214,234H86.786a1.594,1.594,0,0,0-1.323.58A2.253,2.253,0,0,0,85,236.031a2.607,2.607,0,0,0,.614,1.524,5.533,5.533,0,0,0,1.306,1.289Zm0,0" transform="translate(0 -1)"/><path class="a" d="M103.884,264.561q-3.66,2.477-5.558,3.85-.636.469-1.033.731a6.284,6.284,0,0,1-1.054.536,3.211,3.211,0,0,1-1.228.274h-.022a3.208,3.208,0,0,1-1.228-.274,6.321,6.321,0,0,1-1.055-.536q-.4-.262-1.032-.731-1.507-1.1-5.547-3.85A5.92,5.92,0,0,1,85,263.59v8.861a1.79,1.79,0,0,0,1.786,1.786h16.428A1.79,1.79,0,0,0,105,272.451V263.59a6.179,6.179,0,0,1-1.116.971Zm0,0" transform="translate(0 -24.496)"/></g></svg>