<svg xmlns="http://www.w3.org/2000/svg" xmlns:xlink="http://www.w3.org/1999/xlink" width="69.967" height="70" viewBox="0 0 69.967 70"><defs><style>.a{fill:#4c576b;}.b{fill:#edb50b;}.c{clip-path:url(#a);}</style><clipPath id="a"><rect class="a" width="69.967" height="70"/></clipPath></defs><g transform="translate(-153 -122)"><circle class="b" cx="33" cy="33" r="33" transform="translate(155 124)"/><g transform="translate(52 -116)"><g transform="translate(101 238)"><g class="c"><path class="a" d="M160.694,297.7a34.953,34.953,0,1,0-49.432,0,34.993,34.993,0,0,0,49.432,0Zm-45.619-45.619a29.562,29.562,0,1,1,0,41.811,29.6,29.6,0,0,1,0-41.811Zm1.625,12.192a2.073,2.073,0,0,1,2.074-2.071l8.811,0c.016,0,.035.006.052.006a4.085,4.085,0,1,1-4.031,4.141h-4.832a2.071,2.071,0,0,1-2.074-2.072Zm25.6.061a2.073,2.073,0,0,1,2.074-2.071h8.811c.016,0,.035,0,.052,0a4.087,4.087,0,1,1-4.031,4.143h-4.832a2.076,2.076,0,0,1-2.074-2.075Zm-21.826,16.909c7.239.245,24.2,1.5,25.31,7.866a1.956,1.956,0,0,1-1.467,2.29,1.676,1.676,0,0,1-.341.035,1.871,1.871,0,0,1-1.8-1.6c0-.02-.8-2.117-10.6-3.61a109.711,109.711,0,0,0-11.221-1.048,1.971,1.971,0,0,1,.057-3.929Zm2.6,0" transform="translate(-101.007 -238.009)"/></g></g></g></g></svg>