<svg xmlns="http://www.w3.org/2000/svg" width="7.796" height="17.796" viewBox="0 0 17.796 17.796"><defs><style>.a{fill:#f45a4e;}</style></defs><path class="a" d="M134.069,291.6l3-3,2-2a1.88,1.88,0,0,0,.012-2.657l-.684-.688a1.9,1.9,0,0,0-2.67,0l-5,5-3-2.995-2-2a1.881,1.881,0,0,0-2.658-.012l-.688.685a1.9,1.9,0,0,0,0,2.67l5,5-5,5a1.9,1.9,0,0,0,0,2.67l.668.668a1.9,1.9,0,0,0,2.675.006l5-5,5.005,5a1.9,1.9,0,0,0,2.67,0l.668-.668a1.9,1.9,0,0,0,.006-2.676Z" transform="translate(-121.829 -282.706)"/></svg>